[Header]
FileType HTR
DataType HTRS
FileVersion 1
NumSegments 64
NumFrames 3
DataFrameRate 24
EulerRotationOrder ZYX
CalibrationUnits mm
RotationUnits Degrees
GlobalAxisofGravity Y
BoneLengthAxis Y
ScaleFactor 1.0
[SegmentNames&Hierarchy]
Hips	GLOBAL
Spine	Hips
Spine1	Spine
Spine2	Spine1
Neck	Spine2
Head	Neck
LeftEye	Head
RightEye	Head
LeftShoulder	Spine2
LeftArm	LeftShoulder
LeftForeArm	LeftArm
LeftHand	LeftForeArm
LeftHandThumb1	LeftHand
LeftHandThumb2	LeftHandThumb1
LeftHandThumb3	LeftHandThumb2
LeftHandThumb4	LeftHandThumb3
LeftHandIndex1	LeftHand
LeftHandIndex2	LeftHandIndex1
LeftHandIndex3	LeftHandIndex2
LeftHandIndex4	LeftHandIndex3
LeftHandMiddle1	LeftHand
LeftHandMiddle2	LeftHandMiddle1
LeftHandMiddle3	LeftHandMiddle2
LeftHandMiddle4	LeftHandMiddle3
LeftHandRing1	LeftHand
LeftHandRing2	LeftHandRing1
LeftHandRing3	LeftHandRing2
LeftHandRing4	LeftHandRing3
LeftHandPinky1	LeftHand
LeftHandPinky2	LeftHandPinky1
LeftHandPinky3	LeftHandPinky2
LeftHandPinky4	LeftHandPinky3
RightShoulder	Spine2
RightArm	RightShoulder
RightForeArm	RightArm
RightHand	RightForeArm
RightHandPinky1	RightHand
RightHandPinky2	RightHandPinky1
RightHandPinky3	RightHandPinky2
RightHandPinky4	RightHandPinky3
RightHandRing1	RightHand
RightHandRing2	RightHandRing1
RightHandRing3	RightHandRing2
RightHandRing4	RightHandRing3
RightHandMiddle1	RightHand
RightHandMiddle2	RightHandMiddle1
RightHandMiddle3	RightHandMiddle2
RightHandMiddle4	RightHandMiddle3
RightHandIndex1	RightHand
RightHandIndex2	RightHandIndex1
RightHandIndex3	RightHandIndex2
RightHandIndex4	RightHandIndex3
RightHandThumb1	RightHand
RightHandThumb2	RightHandThumb1
RightHandThumb3	RightHandThumb2
RightHandThumb4	RightHandThumb3
LeftUpLeg	Hips
LeftLeg	LeftUpLeg
LeftFoot	LeftLeg
LeftToeBase	LeftFoot
RightUpLeg	Hips
RightLeg	RightUpLeg
RightFoot	RightLeg
RightToeBase	RightFoot
[BasePosition]
Hips	0	0	0	0	0	0	1
Spine	0	0	0	0	0	0	1
Spine1	0	0	0	0	0	0	1
Spine2	0	0	0	0	0	0	1
Neck	0	0	0	0	0	0	1
Head	0	0	0	0	0	0	1
LeftEye	0	0	0	0	0	0	1
RightEye	0	0	0	0	0	0	1
LeftShoulder	0	0	0	0	0	0	1
LeftArm	0	0	0	0	0	0	1
LeftForeArm	0	0	0	0	0	0	1
LeftHand	0	0	0	0	0	0	1
LeftHandThumb1	0	0	0	0	0	0	1
LeftHandThumb2	0	0	0	0	0	0	1
LeftHandThumb3	0	0	0	0	0	0	1
LeftHandThumb4	0	0	0	0	0	0	1
LeftHandIndex1	0	0	0	0	0	0	1
LeftHandIndex2	0	0	0	0	0	0	1
LeftHandIndex3	0	0	0	0	0	0	1
LeftHandIndex4	0	0	0	0	0	0	1
LeftHandMiddle1	0	0	0	0	0	0	1
LeftHandMiddle2	0	0	0	0	0	0	1
LeftHandMiddle3	0	0	0	0	0	0	1
LeftHandMiddle4	0	0	0	0	0	0	1
LeftHandRing1	0	0	0	0	0	0	1
LeftHandRing2	0	0	0	0	0	0	1
LeftHandRing3	0	0	0	0	0	0	1
LeftHandRing4	0	0	0	0	0	0	1
LeftHandPinky1	0	0	0	0	0	0	1
LeftHandPinky2	0	0	0	0	0	0	1
LeftHandPinky3	0	0	0	0	0	0	1
LeftHandPinky4	0	0	0	0	0	0	1
RightShoulder	0	0	0	0	0	0	1
RightArm	0	0	0	0	0	0	1
RightForeArm	0	0	0	0	0	0	1
RightHand	0	0	0	0	0	0	1
RightHandPinky1	0	0	0	0	0	0	1
RightHandPinky2	0	0	0	0	0	0	1
RightHandPinky3	0	0	0	0	0	0	1
RightHandPinky4	0	0	0	0	0	0	1
RightHandRing1	0	0	0	0	0	0	1
RightHandRing2	0	0	0	0	0	0	1
RightHandRing3	0	0	0	0	0	0	1
RightHandRing4	0	0	0	0	0	0	1
RightHandMiddle1	0	0	0	0	0	0	1
RightHandMiddle2	0	0	0	0	0	0	1
RightHandMiddle3	0	0	0	0	0	0	1
RightHandMiddle4	0	0	0	0	0	0	1
RightHandIndex1	0	0	0	0	0	0	1
RightHandIndex2	0	0	0	0	0	0	1
RightHandIndex3	0	0	0	0	0	0	1
RightHandIndex4	0	0	0	0	0	0	1
RightHandThumb1	0	0	0	0	0	0	1
RightHandThumb2	0	0	0	0	0	0	1
RightHandThumb3	0	0	0	0	0	0	1
RightHandThumb4	0	0	0	0	0	0	1
LeftUpLeg	0	0	0	0	0	0	1
LeftLeg	0	0	0	0	0	0	1
LeftFoot	0	0	0	0	0	0	1
LeftToeBase	0	0	0	0	0	0	1
RightUpLeg	0	0	0	0	0	0	1
RightLeg	0	0	0	0	0	0	1
RightFoot	0	0	0	0	0	0	1
RightToeBase	0	0	0	0	0	0	1
[Hips]
24	-9.143618584	1020.414429	45.97994232	15.83051109	-71.59427643	-17.57168961	1.0
25	-16.1847229	1020.059082	39.23343277	19.54678917	-74.62921143	-21.13339424	1.0
26	-20.05727005	1019.346985	31.39460564	24.96278954	-77.58209229	-26.39406395	1.0
[Spine]
24	0	101.8159943	1.315000057	1.590287447	1.01851511	2.972365856	1.0
25	0	101.8159943	1.315000057	1.611162782	0.7113441229	3.088608027	1.0
26	0	101.8159943	1.315000057	1.569861889	0.2772160769	3.148778915	1.0
[Spine1]
24	0	100.8349991	-10.00800037	1.065822721	2.927938938	5.686313629	1.0
25	0	100.8349991	-10.00800037	1.026292205	2.45108819	5.58199501	1.0
26	0	100.8349991	-10.00800037	0.9731128216	1.892129421	5.607719421	1.0
[Spine2]
24	0	91	-13.73399925	0.8678565621	3.458919048	5.550282001	1.0
25	0	91	-13.73399925	0.8700466752	2.977717876	5.455726147	1.0
26	0	91	-13.73399925	0.8656051159	2.416275978	5.492519379	1.0
[Neck]
24	0	166.7169952	-25.16200066	3.072242975	-5.380937099	-2.759894371	1.0
25	0	166.7169952	-25.16200066	2.657359838	-4.323174477	-2.718261957	1.0
26	0	166.7169952	-25.16200066	2.240552664	-3.287146807	-2.632036448	1.0
[Head]
24	0	96.17900085	16.84999847	3.591043472	-12.0745554	-5.559345245	1.0
25	0	96.17900085	16.84999847	3.388732433	-8.920119286	-6.365124226	1.0
26	0	96.17900085	16.84999847	3.01230526	-6.161186218	-6.985104084	1.0
[LeftEye]
24	30.6760006	64.09500122	92.83599854	0	0	0	1.0
25	30.6760006	64.09500122	92.83599854	0	0	0	1.0
26	30.6760006	64.09500122	92.83599854	0	0	0	1.0
[RightEye]
24	-30.6760006	64.09500122	92.83499908	0	0	0	1.0
25	-30.6760006	64.09500122	92.83499908	0	0	0	1.0
26	-30.6760006	64.09500122	92.83499908	0	0	0	1.0
[LeftShoulder]
24	45.70400238	109.4599991	-26.28000069	4.962877274	-12.37068081	-7.133248806	1.0
25	45.70400238	109.4599991	-26.28000069	4.952916145	-12.50710678	-6.915803909	1.0
26	45.70400238	109.4599991	-26.28000069	4.942426682	-12.67170811	-6.726438046	1.0
[LeftArm]
24	105.923996	-5.24600029	-22.32099915	-2.060920954	3.244363308	-82.09603882	1.0
25	105.923996	-5.24600029	-22.32099915	-2.238927126	3.089277983	-82.28401947	1.0
26	105.923996	-5.24600029	-22.32099915	-2.567451715	3.204968929	-82.54460907	1.0
[LeftForeArm]
24	278.414978	-0.0009999999311	0	-4.684421128e-06	-15.81658077	-0.0002144454775	1.0
25	278.414978	-0.0009999999311	0	2.583713695e-06	-15.46591473	-0.0002119880082	1.0
26	278.414978	-0.0009999999311	0	-6.979894351e-07	-15.14517403	-0.0001994338963	1.0
[LeftHand]
24	283.2879944	0	0	-28.46092224	-2.554867744	-10.26263428	1.0
25	283.2879944	0	0	-28.03601837	-2.449756861	-10.13213444	1.0
26	283.2879944	0	0	-27.89307022	-2.235699415	-9.94739151	1.0
[LeftHandThumb1]
24	24.6609993	-15.75	26.8239994	18.14933205	-4.414285183	9.815217972	1.0
25	24.6609993	-15.75	26.8239994	17.97056198	-4.219892979	10.10352707	1.0
26	24.6609993	-15.75	26.8239994	17.94740295	-4.0599823	10.23129368	1.0
[LeftHandThumb2]
24	32.29800034	-18.64699936	18.64699936	-0.8344792128	32.83545685	-2.918958426	1.0
25	32.29800034	-18.64699936	18.64699936	-0.6440010071	32.91369629	-2.956562996	1.0
26	32.29800034	-18.64699936	18.64699936	-0.5418167114	32.89329147	-2.942292452	1.0
[LeftHandThumb3]
24	26.52600098	-15.31499958	15.31499958	2.06709528	9.252609253	-0.001739707892	1.0
25	26.52600098	-15.31499958	15.31499958	2.072054625	9.268205643	-0.005863809027	1.0
26	26.52600098	-15.31499958	15.31499958	2.075542688	9.279057503	-0.008746620268	1.0
[LeftHandThumb4]
24	19.54599953	-11.28499985	11.28499985	0	0	0	1.0
25	19.54599953	-11.28499985	11.28499985	0	0	0	1.0
26	19.54599953	-11.28499985	11.28499985	0	0	0	1.0
[LeftHandIndex1]
24	91.09299469	-5.170999527	22.60099792	-0.3159838021	4.658112049	-7.940690517	1.0
25	91.09299469	-5.170999527	22.60099792	-0.325083226	4.66994524	-8.030892372	1.0
26	91.09299469	-5.170999527	22.60099792	-0.3230245709	4.661429882	-8.001612663	1.0
[LeftHandIndex2]
24	36.76399994	0	0	-0.6246963143	2.76387167	-20.49953079	1.0
25	36.76399994	0	0	-0.6275156736	2.769114733	-20.55798912	1.0
26	36.76399994	0	0	-0.6287007332	2.771297455	-20.58265495	1.0
[LeftHandIndex3]
24	28.83100128	0	0	-0.1084383279	0.7982886434	-10.09721088	1.0
25	28.83100128	0	0	-0.1094638407	0.8040467501	-10.15558624	1.0
26	28.83100128	0	0	-0.1099113822	0.8064883351	-10.18018913	1.0
[LeftHandIndex4]
24	23.92700005	0	0	0	0	0	1.0
25	23.92700005	0	0	0	0	0	1.0
26	23.92700005	0	0	0	0	0	1.0
[LeftHandMiddle1]
24	95.33399963	0	0	-1.535123706	8.677376747	-15.99280071	1.0
25	95.33399963	0	0	-1.544635296	8.689181328	-16.07127953	1.0
26	95.33399963	0	0	-1.542440414	8.683797836	-16.05340004	1.0
[LeftHandMiddle2]
24	36.98199844	0	0	-1.419296861	3.815167665	-33.30705643	1.0
25	36.98199844	0	0	-1.424321294	3.820620298	-33.38040543	1.0
26	36.98199844	0	0	-1.426270604	3.822737932	-33.40885544	1.0
[LeftHandMiddle3]
24	29.50900078	0	0	-0.1464907378	1.474938393	-12.15425205	1.0
25	29.50900078	0	0	-0.1481605619	1.482019067	-12.22749424	1.0
26	29.50900078	0	0	-0.1488147825	1.48476541	-12.25571156	1.0
[LeftHandMiddle4]
24	28.3390007	0	0	0	0	0	1.0
25	28.3390007	0	0	0	0	0	1.0
26	28.3390007	0	0	0	0	0	1.0
[LeftHandRing1]
24	91.04499817	-0.4390000105	-18.65100098	-3.029114008	11.51999283	-27.01419449	1.0
25	91.04499817	-0.4390000105	-18.65100098	-3.039171219	11.51371479	-27.09380341	1.0
26	91.04499817	-0.4390000105	-18.65100098	-3.036343098	11.52066803	-27.06949425	1.0
[LeftHandRing2]
24	31.54000092	0	0	-1.188793182	4.04438448	-40.05896378	1.0
25	31.54000092	0	0	-1.193204999	4.050050259	-40.13127136	1.0
26	31.54000092	0	0	-1.195553899	4.053051472	-40.16998672	1.0
[LeftHandRing3]
24	29.37700081	0	0	-0.08887564391	1.889520407	-19.19462204	1.0
25	29.37700081	0	0	-0.09054996818	1.896444559	-19.26633072	1.0
26	29.37700081	0	0	-0.09146359563	1.900227547	-19.30516243	1.0
[LeftHandRing4]
24	26.47500038	0	0	0	0	0	1.0
25	26.47500038	0	0	0	0	0	1.0
26	26.47500038	0	0	0	0	0	1.0
[LeftHandPinky1]
24	80.77799988	-4.887000084	-38.06099701	-5.228004932	16.03899002	-36.99653625	1.0
25	80.77799988	-4.887000084	-38.06099701	-5.233961105	16.04108238	-37.03757095	1.0
26	80.77799988	-4.887000084	-38.06099701	-5.232306957	16.05643082	-37.01616669	1.0
[LeftHandPinky2]
24	36	0	0	-1.940846443	3.813352108	-45.59994507	1.0
25	36	0	0	-1.944520473	3.816567183	-45.64880371	1.0
26	36	0	0	-1.946074963	3.817917824	-45.66949844	1.0
[LeftHandPinky3]
24	21.14200211	0	0	-0.5406408906	2.828065395	-20.46427345	1.0
25	21.14200211	0	0	-0.542732358	2.832453012	-20.51299667	1.0
26	21.14200211	0	0	-0.5436242819	2.834331989	-20.53364944	1.0
[LeftHandPinky4]
24	19.75699997	0	0	0	0	0	1.0
25	19.75699997	0	0	0	0	0	1.0
26	19.75699997	0	0	0	0	0	1.0
[RightShoulder]
24	-45.70000076	109.4620056	-26.28000069	4.378994942	3.368526459	3.877343893	1.0
25	-45.70000076	109.4620056	-26.28000069	4.464232922	3.388667583	4.265038967	1.0
26	-45.70000076	109.4620056	-26.28000069	4.542481422	3.401446104	4.628098011	1.0
[RightArm]
24	-105.9280014	-5.248000145	-22.32099915	2.854920387	1.759607673	67.94391632	1.0
25	-105.9280014	-5.248000145	-22.32099915	2.415219545	2.277723789	68.05489349	1.0
26	-105.9280014	-5.248000145	-22.32099915	1.832728267	2.336325169	68.13369751	1.0
[RightForeArm]
24	-278.414978	0	0	1.672916028e-06	16.06648254	4.933876426e-06	1.0
25	-278.414978	0	0	1.533977638e-06	17.6431675	4.366303983e-06	1.0
26	-278.414978	0	0	-1.71371255e-06	18.24312401	1.627781421e-05	1.0
[RightHand]
24	-283.2879944	0	0.0009999999311	-14.66557312	-11.73115253	10.02413368	1.0
25	-283.2879944	0	0.0009999999311	-14.86779881	-11.19703293	10.00763702	1.0
26	-283.2879944	0	0.0009999999311	-14.51037788	-10.26404667	10.42775154	1.0
[RightHandPinky1]
24	-80.76699829	-4.885000229	-38.06000137	-5.014498711	-15.87490273	35.60870361	1.0
25	-80.76699829	-4.885000229	-38.06000137	-5.012505054	-15.88259411	35.58054733	1.0
26	-80.76699829	-4.885000229	-38.06000137	-5.028272152	-15.92264652	35.65839767	1.0
[RightHandPinky2]
24	-36	0	0.0009999999311	-1.955402493	-3.82556653	45.81190491	1.0
25	-36	0	0.0009999999311	-1.960981727	-3.830400944	45.88585663	1.0
26	-36	0	0.0009999999311	-1.961912632	-3.831204653	45.89830399	1.0
[RightHandPinky3]
24	-21.14200211	0	0	-0.7721959352	0.04155585915	22.27199936	1.0
25	-21.14200211	0	0	-0.7755758762	0.03499789163	22.34560204	1.0
26	-21.14200211	0	0	-0.7761406302	0.03387841582	22.3579731	1.0
[RightHandPinky4]
24	-19.75699997	0	0	0	0	0	1.0
25	-19.75699997	0	0	0	0	0	1.0
26	-19.75699997	0	0	0	0	0	1.0
[RightHandRing1]
24	-91.03599548	-0.4390000105	-18.65100098	-2.84058094	-11.52765751	25.55542946	1.0
25	-91.03599548	-0.4390000105	-18.65100098	-2.842655182	-11.52880478	25.57109261	1.0
26	-91.03599548	-0.4390000105	-18.65100098	-2.855267286	-11.53624249	25.66624832	1.0
[RightHandRing2]
24	-31.54000092	0	0	-1.198763728	-4.056874752	40.22568512	1.0
25	-31.54000092	0	0	-1.201605558	-4.060486794	40.27228928	1.0
26	-31.54000092	0	0	-1.201729417	-4.060631752	40.27406311	1.0
[RightHandRing3]
24	-29.37700081	0	0	-0.1388514191	0.08755905181	17.84100151	1.0
25	-29.37700081	0	0	-0.1398329735	0.0830386281	17.88744354	1.0
26	-29.37700081	0	0	-0.1398685127	0.08285856247	17.88913536	1.0
[RightHandRing4]
24	-26.47500038	0	0	0	0	0	1.0
25	-26.47500038	0	0	0	0	0	1.0
26	-26.47500038	0	0	0	0	0	1.0
[RightHandMiddle1]
24	-95.32500458	0	0	-1.331503391	-8.363976479	14.30388927	1.0
25	-95.32500458	0	0	-1.328826785	-8.345303535	14.28276825	1.0
26	-95.32500458	0	0	-1.339681149	-8.397236824	14.37076759	1.0
[RightHandMiddle2]
24	-36.98199844	0	0	-1.421382904	-3.817121983	33.33939362	1.0
25	-36.98199844	0	0	-1.423452139	-3.819358349	33.36949921	1.0
26	-36.98199844	0	0	-1.424648404	-3.82064867	33.38685989	1.0
[RightHandMiddle3]
24	-29.50900078	0	0	-0.251113683	-1.670552731	15.81854057	1.0
25	-29.50900078	0	0	-0.2519730031	-1.673368573	15.84821033	1.0
26	-29.50900078	0	0	-0.2524927855	-1.675102592	15.86621094	1.0
[RightHandMiddle4]
24	-28.3390007	0	0.0009999999311	0	0	0	1.0
25	-28.3390007	0	0.0009999999311	0	0	0	1.0
26	-28.3390007	0	0.0009999999311	0	0	0	1.0
[RightHandIndex1]
24	-91.08300018	-5.167999744	22.60099792	-0.103087008	-4.401139736	5.62604332	1.0
25	-91.08300018	-5.167999744	22.60099792	-0.1156460643	-4.369227886	5.590729713	1.0
26	-91.08300018	-5.167999744	22.60099792	-0.1227814779	-4.38381815	5.688943863	1.0
[RightHandIndex2]
24	-36.76399994	0	0	-0.6340472698	-2.780966997	20.69405937	1.0
25	-36.76399994	0	0	-0.6352003217	-2.783088207	20.71774101	1.0
26	-36.76399994	0	0	-0.6347652078	-2.7823174	20.70889091	1.0
[RightHandIndex3]
24	-28.83100128	0	0	-0.2414322495	-0.1692552865	13.96536446	1.0
25	-28.83100128	0	0	-0.2419963777	-0.1715608239	13.98899364	1.0
26	-28.83100128	0	0	-0.2417745888	-0.1706870943	13.98015785	1.0
[RightHandIndex4]
24	-23.92700005	0	0	0	0	0	1.0
25	-23.92700005	0	0	0	0	0	1.0
26	-23.92700005	0	0	0	0	0	1.0
[RightHandThumb1]
24	-24.64799881	-15.72700024	26.82600021	18.78950119	2.299245358	-10.27571201	1.0
25	-24.64799881	-15.72700024	26.82600021	19.01372147	2.110913754	-10.1654129	1.0
26	-24.64799881	-15.72700024	26.82600021	18.97556114	2.138430595	-10.14969826	1.0
[RightHandThumb2]
24	-32.29800034	-18.64699936	18.64699936	-0.4180882871	-31.91783714	2.878274918	1.0
25	-32.29800034	-18.64699936	18.64699936	-0.4031923413	-31.76231956	2.840448856	1.0
26	-32.29800034	-18.64699936	18.64699936	-0.4064807892	-31.78350067	2.852614403	1.0
[RightHandThumb3]
24	-26.52600098	-15.31399918	15.31399918	1.861837745	-8.231200218	0.7444936037	1.0
25	-26.52600098	-15.31399918	15.31399918	1.862649918	-8.209688187	0.8356031179	1.0
26	-26.52600098	-15.31399918	15.31399918	1.862193227	-8.200684547	0.8312864304	1.0
[RightHandThumb4]
24	-19.54599953	-11.28499985	11.28499985	0	0	0	1.0
25	-19.54599953	-11.28499985	11.28499985	0	0	0	1.0
26	-19.54599953	-11.28499985	11.28499985	0	0	0	1.0
[LeftUpLeg]
24	82.07800293	-67.51699829	-15.99599934	-17.93299484	21.7487812	11.76941586	1.0
25	82.07800293	-67.51699829	-15.99599934	-18.24963951	18.78629303	11.47696209	1.0
26	82.07800293	-67.51699829	-15.99599934	-18.20351601	16.51741791	10.98954391	1.0
[LeftLeg]
24	0	-443.7049866	2.845999956	35.95636749	3.019635916	7.10680294	1.0
25	0	-443.7049866	2.845999956	34.19435883	1.239988327	6.239937305	1.0
26	0	-443.7049866	2.845999956	31.27800941	1.559126616	6.327838898	1.0
[LeftFoot]
24	0	-444.2789917	-29.8219986	3.250144243	14.56990814	-14.83224583	1.0
25	0	-444.2789917	-29.8219986	2.489925385	12.54802799	-13.71993637	1.0
26	0	-444.2789917	-29.8219986	0.9742885828	9.428607941	-12.1747303	1.0
[LeftToeBase]
24	0	-87.28699493	107.1060028	-15.69248009	-0.02307111397	-0.1085038036	1.0
25	0	-87.28699493	107.1060028	-14.15583706	-0.01585751772	-0.08329023421	1.0
26	0	-87.28699493	107.1060028	-10.94555378	-0.002836805768	-0.01902850904	1.0
[RightUpLeg]
24	-82.07800293	-67.51699829	-15.99599934	-2.064897299	-8.228516579	9.412541389	1.0
25	-82.07800293	-67.51699829	-15.99599934	-1.571663737	-6.497429848	9.985782623	1.0
26	-82.07800293	-67.51699829	-15.99599934	-1.435084581	-5.838729858	10.22922039	1.0
[RightLeg]
24	0	-443.7049866	2.861999989	11.00098228	-5.689533234	1.795518398	1.0
25	0	-443.7049866	2.861999989	10.56499004	-6.46894455	1.296755195	1.0
26	0	-443.7049866	2.861999989	10.61336994	-6.53256464	1.371741533	1.0
[RightFoot]
24	0	-444.2770081	-29.83799934	-9.364889145	-12.20388794	-4.111856461	1.0
25	0	-444.2770081	-29.83799934	-9.378098488	-9.940018654	-4.497984886	1.0
26	0	-444.2770081	-29.83799934	-9.507286072	-7.410573483	-5.199249268	1.0
[RightToeBase]
24	0	-87.28699493	107.1060028	-0.5973368883	-1.269615586e-05	-2.578370868e-06	1.0
25	0	-87.28699493	107.1060028	-0.6014558673	-4.232132142e-06	-1.358253172e-07	1.0
26	0	-87.28699493	107.1060028	-0.5946618319	-2.499342736e-05	1.178469461e-06	1.0
[EndOfFile]
